<svg xmlns="http://www.w3.org/2000/svg" width="140.574" height="24.696" viewBox="0 0 140.574 24.696">
  <g id="Group_9445" data-name="Group 9445" transform="translate(16762.928 -13119.992)">
    <g id="Group_4620" data-name="Group 4620" transform="translate(-16762.928 13119.992)">
      <path id="Path_39-2" data-name="Path 39-2" d="M787.477,816.776a18.813,18.813,0,0,0,.985-2.846,15.486,15.486,0,0,0-3.826.962,15.7,15.7,0,0,1-8.856,8.855,15.525,15.525,0,0,0-.961,3.827,18.863,18.863,0,0,0,2.847-.985A13.009,13.009,0,0,1,787.477,816.776Z" transform="translate(-767.863 -806.988)" fill="#040505"/>
      <path id="Path_36-2" data-name="Path 36-2" d="M740.464,876.165a18.84,18.84,0,0,1,.545-3.41,15.314,15.314,0,0,1-2.337.107,1.677,1.677,0,0,0-1.739,1.613c0,.019,0,.038,0,.057h0a1.671,1.671,0,0,0,1.61,1.672q.3.01.609.011C739.593,876.216,740.029,876.2,740.464,876.165Z" transform="translate(-736.917 -855.035)" fill="#bcbcbc"/>
      <path id="Path_38-2" data-name="Path 38-2" d="M833.761,778.262a15.683,15.683,0,0,1-.114,1.858,18.89,18.89,0,0,1,3.41-.545c.03-.434.051-.87.051-1.313q0-.3-.011-.609a1.672,1.672,0,0,0-1.672-1.61h0a1.679,1.679,0,0,0-1.672,1.687c0,.02,0,.04,0,.06Q833.761,778.025,833.761,778.262Z" transform="translate(-815.912 -776.043)" fill="#bcbcbc"/>
      <path id="Path_40-2" data-name="Path 40-2" d="M787.477,816.776a18.813,18.813,0,0,0,.985-2.846,15.486,15.486,0,0,0-3.826.962,15.7,15.7,0,0,1-8.856,8.855,15.525,15.525,0,0,0-.961,3.827,18.863,18.863,0,0,0,2.847-.985A13.009,13.009,0,0,1,787.477,816.776Z" transform="translate(-767.863 -806.988)" fill="#bcbcbc"/>
      <path id="Path_43-2" data-name="Path 43-2" d="M759.275,890.25a15.682,15.682,0,0,1,.114-1.858,18.853,18.853,0,0,1-3.41.545c-.03.435-.051.87-.051,1.313q0,.305.011.61a1.672,1.672,0,0,0,1.673,1.61h0a1.679,1.679,0,0,0,1.672-1.686c0-.02,0-.04,0-.059Q759.276,890.487,759.275,890.25Z" transform="translate(-752.434 -867.807)" fill="#bcbcbc"/>
      <path id="Path_45-2" data-name="Path 45-2" d="M849.827,795.094a18.872,18.872,0,0,1-.545,3.41,15.313,15.313,0,0,1,2.337-.108,1.677,1.677,0,0,0,1.739-1.613c0-.019,0-.038,0-.057h0a1.672,1.672,0,0,0-1.61-1.672q-.3-.01-.61-.011C850.7,795.043,850.261,795.064,849.827,795.094Z" transform="translate(-828.682 -791.562)" fill="#bcbcbc"/>
      <path id="Path_46-2" data-name="Path 46-2" d="M771.861,802.124a15.511,15.511,0,0,0,.961-3.827,18.9,18.9,0,0,0-2.847.985,13.01,13.01,0,0,1-9.811,9.812,18.725,18.725,0,0,0-.985,2.846,15.5,15.5,0,0,0,3.826-.962A15.7,15.7,0,0,1,771.861,802.124Z" transform="translate(-755.088 -794.219)" fill="#bcbcbc"/>
      <path id="Path_47-2" data-name="Path 47-2" d="M756.751,868.467a18.856,18.856,0,0,0-.545,3.41,18.881,18.881,0,0,0,3.41-.545,15.506,15.506,0,0,1,.961-3.827A15.464,15.464,0,0,1,756.751,868.467Z" transform="translate(-752.661 -850.747)" fill="#040505"/>
      <path id="Path_48-2" data-name="Path 48-2" d="M756.751,868.467a18.856,18.856,0,0,0-.545,3.41,18.881,18.881,0,0,0,3.41-.545,15.506,15.506,0,0,1,.961-3.827A15.464,15.464,0,0,1,756.751,868.467Z" transform="translate(-752.661 -850.747)" fill="#717171"/>
      <path id="Path_49-2" data-name="Path 49-2" d="M832.219,798.723a18.877,18.877,0,0,0,.544-3.41,18.871,18.871,0,0,0-3.41.545,15.5,15.5,0,0,1-.961,3.827A15.48,15.48,0,0,1,832.219,798.723Z" transform="translate(-811.62 -791.782)" fill="#040505"/>
      <path id="Path_50-2" data-name="Path 50-2" d="M832.219,798.723a18.877,18.877,0,0,0,.544-3.41,18.871,18.871,0,0,0-3.41.545,15.5,15.5,0,0,1-.961,3.827A15.48,15.48,0,0,1,832.219,798.723Z" transform="translate(-811.62 -791.782)" fill="#717171"/>
      <path id="Path_51-2" data-name="Path 51-2" d="M764.561,813.482a13.009,13.009,0,0,0,9.811-9.812A19.073,19.073,0,0,0,764.561,813.482Z" transform="translate(-759.485 -798.608)" fill="#717171"/>
      <path id="Path_52-2" data-name="Path 52-2" d="M788.913,837.834a12.434,12.434,0,0,0-.305,3.495,1.667,1.667,0,0,0,1.67,1.569h0a1.671,1.671,0,0,0,1.671-1.671c0-.03,0-.059,0-.088a9.6,9.6,0,0,1,10.084-10.082,1.671,1.671,0,0,0,1.755-1.582c0-.029,0-.058,0-.087h0a1.676,1.676,0,0,0-1.59-1.672,12.424,12.424,0,0,0-3.474.307A19.071,19.071,0,0,1,788.913,837.834Z" transform="translate(-779.111 -818.234)" fill="#bcbcbc"/>
      <path id="Path_53-2" data-name="Path 53-2" d="M790.356,839.276a19.07,19.07,0,0,0,9.811-9.812A13.007,13.007,0,0,0,790.356,839.276Z" transform="translate(-780.553 -819.676)" fill="#717171"/>
      <path id="Path_52-3" data-name="Path 52-3" d="M751.729,781.159a12.433,12.433,0,0,0,.305-3.495,1.668,1.668,0,0,0-1.67-1.569h0a1.67,1.67,0,0,0-1.67,1.672c0,.029,0,.058,0,.087a9.6,9.6,0,0,1-10.084,10.082,1.67,1.67,0,0,0-1.755,1.582q0,.044,0,.087h0a1.676,1.676,0,0,0,1.59,1.672,12.428,12.428,0,0,0,3.474-.307A19.071,19.071,0,0,1,751.729,781.159Z" transform="translate(-736.855 -776.086)" fill="#bcbcbc"/>
      <path id="Path_131" data-name="Path 131" d="M746.08,777.628q-.01-.1-.022-.2a1.672,1.672,0,0,0-1.241-1.33l-.009,0c-.04-.01-.08-.018-.121-.025l-.029,0c-.036-.005-.071-.01-.107-.013s-.057,0-.086,0l-.052,0h-.005a1.671,1.671,0,0,0-1.671,1.671h0c0,.043,0,.085.005.128,0,0,0,.005,0,.007a3.44,3.44,0,0,1-.089,1.3,3.52,3.52,0,0,1-2.512,2.513,3.451,3.451,0,0,1-.879.116q-.168,0-.335-.016l0,0-.053-.006c-.008,0-.015,0-.023,0s-.032,0-.047,0-.051,0-.076,0l-.044,0c-.024,0-.049,0-.073,0s-.077.006-.114.012l-.052.005-.046.01-.015,0a1.67,1.67,0,0,0-1.29,1.29l0,.015c0,.016-.007.031-.009.046s0,.033-.005.05c-.006.04-.01.081-.013.122,0,.024,0,.047,0,.07s0,.027,0,.041c0,.031,0,.061,0,.092s0,.041,0,.061a1.743,1.743,0,0,0,.026.181v0a1.594,1.594,0,0,0,.047.178c.006.018.013.036.02.054.014.039.029.078.047.116.009.02.018.04.029.06l.055.1c.011.018.022.038.034.056.022.035.046.068.071.1.011.015.022.031.034.045a1.69,1.69,0,0,0,.252.252l.046.034c.033.025.066.048.1.071l.056.034c.033.02.068.038.1.055l.06.029c.038.017.077.032.116.046l.054.02a1.61,1.61,0,0,0,.178.047h0a1.673,1.673,0,0,0,.18.025l.021,0-.007,0,.047,0h-.04l.02,0a6.779,6.779,0,0,0,2.748-.306,6.875,6.875,0,0,0,4.414-4.409A6.774,6.774,0,0,0,746.08,777.628Z" transform="translate(-737.014 -776.043)" fill="#bcbcbc"/>
      <path id="Path_131-2" data-name="Path 131" d="M9.031,1.585q-.01-.1-.023-.2A1.672,1.672,0,0,0,7.768.051l-.009,0c-.04-.01-.08-.018-.121-.025l-.029,0C7.574.014,7.538.009,7.5.006s-.057,0-.086,0L7.364,0H7.359A1.671,1.671,0,0,0,5.688,1.671h0c0,.043,0,.085.006.128,0,0,0,.005,0,.007A3.439,3.439,0,0,1,5.6,3.11,3.52,3.52,0,0,1,3.09,5.623a3.451,3.451,0,0,1-.879.116q-.168,0-.335-.016l0,0L1.818,5.72l-.023,0c-.016,0-.032,0-.047,0s-.051,0-.076,0l-.044,0c-.024,0-.049,0-.073,0s-.077.007-.114.012l-.052.005-.046.01-.015,0A1.67,1.67,0,0,0,.036,7.04l0,.015c0,.016-.007.031-.01.046s0,.033-.005.05q-.009.06-.013.122c0,.024,0,.047,0,.07s0,.027,0,.041c0,.031,0,.061,0,.092s0,.041,0,.061a1.727,1.727,0,0,0,.026.181v0A1.622,1.622,0,0,0,.081,7.9c.006.018.013.036.02.054.014.039.029.078.047.116.009.02.018.04.029.06l.055.1c.011.018.022.038.034.056.022.035.046.068.071.1.011.015.022.031.034.045a1.691,1.691,0,0,0,.252.252l.046.034c.033.025.066.048.1.071l.056.034q.05.03.1.055l.06.029c.038.017.077.032.116.046l.054.02a1.609,1.609,0,0,0,.178.047h0a1.7,1.7,0,0,0,.18.025l.021,0-.007,0,.047,0h-.04l.02,0a6.777,6.777,0,0,0,2.748-.306A6.874,6.874,0,0,0,8.721,4.34,6.775,6.775,0,0,0,9.031,1.585Z" transform="translate(24.708 24.696) rotate(180)" fill="#bcbcbc"/>
    </g>
    <g id="Group_9444" data-name="Group 9444" transform="translate(-16730.455 13121.795)">
      <path id="Path_35" data-name="Path 35" d="M679.82,954.058a6.489,6.489,0,0,0,.931-.785,6.612,6.612,0,0,0,1.71-2.813,6.935,6.935,0,0,0,.264-1.871,9.508,9.508,0,0,0-.184-1.609,6.027,6.027,0,0,0-1.079-2.325,6.789,6.789,0,0,0-2.275-2.03,6.408,6.408,0,0,0-3.159-.779h-4.7v16.869l.024.4h.4a2.039,2.039,0,0,0,2.023-2.023v-12.8c.194,0,.387-.006.581-.01q.366-.023.708-.023a12.037,12.037,0,0,1,2.02.177,3.8,3.8,0,0,1,1.924,1.106,4.169,4.169,0,0,1,1.25,2.713c.007.083.01.163.01.239a4.463,4.463,0,0,1-.8,2.531,4.066,4.066,0,0,1-2.363,1.625h0a1.861,1.861,0,0,0-1.174.881,2.751,2.751,0,0,0-.308,1.314v.4h.4c.157,0,.313-.008.469-.024a2.572,2.572,0,0,1,1,.2l.182.1a2.646,2.646,0,0,1,.909.827q.352.528.6.916a10.426,10.426,0,0,0,.871,1.221,1.639,1.639,0,0,0,.981.556,6.925,6.925,0,0,0,1.184.077H683.4l-2.775-4.129A5.074,5.074,0,0,0,679.82,954.058Z" transform="translate(-671.332 -941.846)" fill="#717171"/>
      <path id="Path_36" data-name="Path 36" d="M714.341,954.808a6.729,6.729,0,0,0-2.1-1.422,6.615,6.615,0,0,0-5.134,0,6.732,6.732,0,0,0-2.1,1.424,6.824,6.824,0,0,0-1.408,2.1,6.618,6.618,0,0,0,0,5.133,6.553,6.553,0,0,0,3.51,3.511,6.606,6.606,0,0,0,5.863-.365,6.573,6.573,0,0,0,2.417-2.418l.2-.346-.562-.33a1.982,1.982,0,0,0-2.42.328,4.388,4.388,0,0,1-.858.651,4.028,4.028,0,0,1-2.068.548,4.072,4.072,0,0,1-2.933-1.219,4.149,4.149,0,0,1-1.031-1.7H716.28v-1.231a6.429,6.429,0,0,0-.518-2.561A6.721,6.721,0,0,0,714.341,954.808Zm-8.627,3.443a4.147,4.147,0,0,1,1.033-1.714l0,0a4.075,4.075,0,0,1,1.314-.894,4.144,4.144,0,0,1,4.548.9,4.072,4.072,0,0,1,1.025,1.714Z" transform="translate(-690.302 -948.432)" fill="#717171"/>
      <path id="Path_37" data-name="Path 37" d="M741.61,956.564a4.07,4.07,0,0,1,2.931-1.216,4.014,4.014,0,0,1,2.045.537,4.737,4.737,0,0,1,.87.651,2,2,0,0,0,2.422.283l.549-.323-.206-.347a6.535,6.535,0,0,0-2.414-2.378,6.383,6.383,0,0,0-3.267-.871,6.454,6.454,0,0,0-2.573.518,6.552,6.552,0,0,0-3.511,3.51,6.62,6.62,0,0,0,0,5.134,6.831,6.831,0,0,0,1.41,2.1,6.633,6.633,0,0,0,2.1,1.417,6.522,6.522,0,0,0,2.571.511,6.454,6.454,0,0,0,3.265-.859,6.628,6.628,0,0,0,2.416-2.391l.206-.347-.569-.334a2.013,2.013,0,0,0-2.412.3,4.668,4.668,0,0,1-.86.643,4.013,4.013,0,0,1-2.045.537,4.078,4.078,0,0,1-1.616-.323,4.167,4.167,0,0,1-1.317-.885,4.216,4.216,0,0,1-.9-1.329,4.18,4.18,0,0,1,0-3.22A4.091,4.091,0,0,1,741.61,956.564Z" transform="translate(-711.133 -948.45)" fill="#717171"/>
      <path id="Path_38" data-name="Path 38" d="M774.736,954.555a1.946,1.946,0,0,0-1.562-.716h-.4V965.87l.024.4h.4a2.028,2.028,0,0,0,2.023-2.023v-6.057a1.806,1.806,0,0,1,.556-1.336,1.9,1.9,0,0,1,1.331-.568,2.009,2.009,0,0,0,2-2.047v-.4h-1.987A4.2,4.2,0,0,0,774.736,954.555Z" transform="translate(-731.947 -949.012)" fill="#717171"/>
      <path id="Path_39" data-name="Path 39" d="M801.163,953.868a2.028,2.028,0,0,0-2.023,2.023v5.619a2.607,2.607,0,0,1-.786,1.909,2.723,2.723,0,0,1-1.445.768,3.038,3.038,0,0,1-1.648-.233,2.593,2.593,0,0,1-1.083-.912,2.518,2.518,0,0,1-.467-1.532v-5.619a2.018,2.018,0,0,0-2.047-2.023h-.4v7.642a4.941,4.941,0,0,0,.588,2.406,5.244,5.244,0,0,0,1.531,1.748,5.34,5.34,0,0,0,2.093.913,4.789,4.789,0,0,0,.982.1,6.177,6.177,0,0,0,1.572-.244,4.351,4.351,0,0,0,1.589-.877,1.952,1.952,0,0,0,1.571.731h.4V954.27l-.024-.4Z" transform="translate(-742.996 -949.03)" fill="#717171"/>
      <path id="Path_40" data-name="Path 40" d="M825.193,943.433a1.535,1.535,0,0,0-1.133.475,1.616,1.616,0,0,0,0,2.268,1.536,1.536,0,0,0,1.133.475,1.609,1.609,0,0,0,0-3.218Z" transform="translate(-762.317 -942.794)" fill="#717171"/>
      <path id="Path_41" data-name="Path 41" d="M824.536,965.887l.024.4h.4a2.018,2.018,0,0,0,2.023-2.023v-10.4h-2.449Z" transform="translate(-762.878 -949.03)" fill="#717171"/>
      <path id="Path_42" data-name="Path 42" d="M839.942,943.778l-.024-.4h-.4a2.027,2.027,0,0,0-2.023,2.023v2.176h-1.668v2.449h1.668v7.949A2.018,2.018,0,0,0,839.54,960h.4v-9.972h.437a2.028,2.028,0,0,0,2.024-2.047v-.4h-2.461Z" transform="translate(-769.624 -942.76)" fill="#717171"/>
      <path id="Path_43" data-name="Path 43" d="M864.489,954.808a6.72,6.72,0,0,0-2.1-1.422,6.615,6.615,0,0,0-5.134,0,6.729,6.729,0,0,0-2.1,1.424,6.813,6.813,0,0,0-1.408,2.1,6.615,6.615,0,0,0,0,5.134,6.553,6.553,0,0,0,3.51,3.511,6.609,6.609,0,0,0,5.863-.365,6.573,6.573,0,0,0,2.417-2.418l.2-.346-.562-.33a1.98,1.98,0,0,0-2.42.328,4.38,4.38,0,0,1-.857.651,4.028,4.028,0,0,1-2.067.548,4.07,4.07,0,0,1-2.933-1.219,4.149,4.149,0,0,1-1.032-1.7h10.566v-1.231a6.414,6.414,0,0,0-.518-2.561A6.717,6.717,0,0,0,864.489,954.808Zm-8.628,3.443a4.144,4.144,0,0,1,1.033-1.714l0,0a4.068,4.068,0,0,1,1.314-.894,4.146,4.146,0,0,1,4.549.9,4.077,4.077,0,0,1,1.026,1.714Z" transform="translate(-780.022 -948.432)" fill="#717171"/>
      <path id="Path_44" data-name="Path 44" d="M892.581,954.556a1.945,1.945,0,0,0-1.562-.717h-.4V965.87l.024.4h.4a2.029,2.029,0,0,0,2.023-2.023v-6.057a1.8,1.8,0,0,1,.557-1.336,1.9,1.9,0,0,1,1.33-.568,2.008,2.008,0,0,0,2-2.047v-.4H894.97A4.194,4.194,0,0,0,892.581,954.556Z" transform="translate(-802.365 -949.012)" fill="#717171"/>
      <path id="Path_45" data-name="Path 45" d="M919.617,953.839a1.991,1.991,0,0,0-1.862,1.241l-2.886,6.93-.36.854-3.239-7.784-.01-.022a1.981,1.981,0,0,0-1.852-1.219h-1.3l5.077,12.208-1.763,4.259h1.3a1.99,1.99,0,0,0,1.862-1.253l6.336-15.214Z" transform="translate(-812.816 -949.012)" fill="#717171"/>
    </g>
  </g>
</svg>
