<svg width="123" height="45" viewBox="0 0 123 45" fill="none" xmlns="http://www.w3.org/2000/svg">
<path opacity="0.6" d="M16.2143 36.2065C25.1692 36.2065 32.4286 28.3808 32.4286 18.7273C32.4286 9.07385 25.1692 1.24817 16.2143 1.24817C7.25939 1.24817 0 9.07385 0 18.7273C0 28.3808 7.25939 36.2065 16.2143 36.2065Z" fill="white"/>
<path d="M3.78572 44.3686C5.87652 44.3686 7.57144 42.5414 7.57144 40.2875C7.57144 38.0336 5.87652 36.2065 3.78572 36.2065C1.69492 36.2065 0 38.0336 0 40.2875C0 42.5414 1.69492 44.3686 3.78572 44.3686Z" fill="white"/>
<path d="M29.9997 37.6696C31.3015 37.6696 32.3569 36.5319 32.3569 35.1285C32.3569 33.7252 31.3015 32.5875 29.9997 32.5875C28.6979 32.5875 27.6426 33.7252 27.6426 35.1285C27.6426 36.5319 28.6979 37.6696 29.9997 37.6696Z" fill="white"/>
<path d="M32.3572 18.5733C32.2857 17.1873 31.2857 16.1093 30 16.1093C28.7143 16.1093 27.7143 17.1873 27.6429 18.5733C27.6429 18.6503 27.6429 18.6503 27.6429 18.7273C27.6429 24.6563 23.1429 29.5074 17.6429 29.5074C12.1429 29.5074 7.64286 24.6563 7.64286 18.7273C7.64286 18.6503 7.64286 18.4963 7.64286 18.4193C7.5 16.2633 5.85715 14.6462 3.85714 14.6462C1.85714 14.6462 0.142857 16.2633 0 18.4193C0 18.4963 0 18.5733 0 18.6503V18.7273V18.8043C0.0714286 28.4294 7.28572 36.1294 16.2143 36.1294C25.1429 36.1294 32.4286 28.3524 32.4286 18.6503C32.3572 18.6503 32.3572 18.6503 32.3572 18.5733Z" fill="white"/>
<path d="M65.7148 18.7272C65.7148 24.6562 61.2148 29.5073 55.7148 29.5073C50.2148 29.5073 45.7148 24.6562 45.7148 18.7272C45.7148 17.3412 46.7863 16.1862 48.072 16.1862C49.3577 16.1862 50.4291 17.3412 50.4291 18.7272C50.4291 22.4232 53.2148 25.4262 56.6434 25.4262C60.072 25.4262 62.8577 22.4232 62.8577 18.7272C62.8577 17.8802 63.5006 17.1872 64.2863 17.1872C65.072 17.1872 65.7148 17.8032 65.7148 18.7272Z" fill="white"/>
<path d="M63.0003 11.8742C63.0003 12.2592 62.8574 12.5672 62.6431 12.8752L62.4289 13.1062L61.3574 14.3383L57.286 18.7273C56.786 19.2663 56.0717 19.3433 55.5003 18.9583C55.5003 18.9583 55.4288 18.9583 55.4288 18.8813C55.3574 18.8043 55.286 18.8043 55.286 18.7273L55.2146 18.6503C55.2146 18.6503 55.2146 18.6503 55.1431 18.5733C55.1431 18.5733 55.1431 18.5733 55.0717 18.4963C55.0717 18.4963 55.0717 18.4193 55.0003 18.4193C55.0003 18.4193 55.0003 18.2653 54.9289 18.1883V18.1113V18.0343V17.9573C54.9289 17.8803 54.9289 17.8803 54.9289 17.8033C54.8574 17.3413 55.0003 16.8793 55.3574 16.4943L59.0717 12.4902C58.3574 12.1822 57.5717 12.0282 56.786 12.0282C53.3574 12.0282 50.5717 15.0313 50.5717 18.7273C50.5717 17.3413 49.5003 16.1863 48.2146 16.1863C46.9289 16.1863 45.8574 17.3413 45.8574 18.7273C45.8574 12.7982 50.3574 7.9472 55.8574 7.9472C58.0003 7.9472 59.9288 8.64021 61.5717 9.87222C61.9288 10.1802 62.286 10.4112 62.6431 10.7962C62.6431 10.7962 62.6431 10.7962 62.7146 10.8732C62.786 11.1042 63.0003 11.4892 63.0003 11.8742Z" fill="white"/>
<path d="M78.5721 26.4272H72.5007L79.5721 18.8042C80.1436 18.1882 80.1436 17.2642 79.5721 16.6482C79.2864 16.3402 78.9293 16.1862 78.5721 16.1862H69.0721C68.2864 16.1862 67.6436 16.8792 67.6436 17.7262C67.6436 18.5732 68.2864 19.2662 69.0721 19.2662H75.1436L68.0721 26.8892C67.7864 27.1973 67.6436 27.5823 67.6436 27.9673C67.6436 28.8143 68.2864 29.5073 69.0721 29.5073H78.5721C79.3578 29.5073 80.0007 28.8143 80.0007 27.9673C80.0007 27.1203 79.3578 26.4272 78.5721 26.4272Z" fill="white"/>
<path d="M88.143 16.1093C86.9287 16.1093 85.7858 16.4943 84.7858 17.1873V9.48722C84.7858 8.64021 84.143 7.9472 83.3573 7.9472C82.5716 7.9472 81.9287 8.64021 81.9287 9.48722V27.9674C81.9287 28.8144 82.5716 29.5074 83.3573 29.5074C84.0001 29.5074 84.5716 29.0454 84.7144 28.4294C85.7144 29.1224 86.8573 29.5074 88.143 29.5074C91.5716 29.5074 94.3573 26.5044 94.3573 22.8083C94.3573 19.1123 91.5001 16.1093 88.143 16.1093ZM88.143 26.4274C86.2859 26.4274 84.7858 24.8104 84.7858 22.8083C84.7858 20.8063 86.2859 19.1893 88.143 19.1893C90.0001 19.1893 91.5001 20.8063 91.5001 22.8083C91.5001 24.8104 89.9287 26.4274 88.143 26.4274Z" fill="white"/>
<path d="M108.572 17.6493V22.8084C108.572 26.5044 105.786 29.5074 102.358 29.5074C98.9293 29.5074 96.1436 26.5044 96.1436 22.8084V17.6493C96.1436 16.8793 96.6436 16.2633 97.3578 16.1093H97.7864C98.5007 16.1863 99.0007 16.8793 99.0007 17.6493V22.8084C99.0007 24.8104 100.501 26.4274 102.358 26.4274C104.215 26.4274 105.715 24.8104 105.715 22.8084V17.6493C105.715 16.8023 106.358 16.1093 107.144 16.1093C107.929 16.1093 108.572 16.8023 108.572 17.6493Z" fill="white"/>
<path d="M121.43 16.1093C120.644 16.1093 120.001 16.8023 120.001 17.6493V18.6503V22.8084C120.001 24.8104 118.501 26.4274 116.644 26.4274C114.787 26.4274 113.287 24.8104 113.287 22.8084V17.6493C113.287 16.8793 112.787 16.2633 112.073 16.1093H111.644C110.93 16.1863 110.43 16.8793 110.43 17.6493V22.8084C110.43 26.5044 113.215 29.5074 116.644 29.5074C117.858 29.5074 119.001 29.1224 120.001 28.4294V31.0474C120.001 33.0495 118.501 34.6665 116.644 34.6665C115.144 34.6665 113.93 33.5885 113.501 32.2025C113.287 31.5865 112.787 31.1244 112.144 31.1244C111.215 31.1244 110.501 32.1255 110.787 33.1265C111.573 35.8215 113.93 37.8235 116.715 37.8235C120.144 37.8235 122.93 34.8205 122.93 31.1244V22.8084V18.6503V17.6493C122.858 16.8023 122.215 16.1093 121.43 16.1093Z" fill="white"/>
</svg>
